<?xml version="1.0"?><svg version="1.2" baseProfile="tiny-ps" viewBox="0 0 263 263" xmlns="http://www.w3.org/2000/svg" xmlns:xlink="http://www.w3.org/1999/xlink"><title>LayerRail</title><g><g fill="#cc9eff" transform="matrix(.1 0 0 -.1 0 263)"><path d="m1208 2499-18-10v-718l10-6c5-3 274-62 597-130 324-68 641-136 707-150 65-14 120-25 122-25 3 0 3 91 2 202l-3 201-310 151c-424 206-670 325-866 418l-167 78h-28c-16 0-37-5-46-11zm-373-192c-93-51-320-178-502-282L0 1835v-213l173-58 173-57 140 51c76 28 220 81 319 117 99 37 188 69 198 72l17 5v648h-7c-5 0-84-42-178-93zm355-1051V963l61-7c34-3 358-6 720-6h659v336l-167 32c-320 62-871 164-1068 198-49 8-109 19-132 25-23 5-49 9-57 9h-16v-294zm-280 254c-36-10-180-48-320-84l-255-66-65-33c-36-18-111-60-167-93L0 1175V960l78-1c85 0 729 0 860 1h82v570l-22-1c-13 0-52-9-88-19zM407 648C305 536 171 391 111 325L0 206v-86l281 2 280 3 38 70c20 39 86 164 145 280 60 116 126 242 147 282 22 39 39 76 39 82v11H592L407 648zm918 193-6-11 33-39c50-57 427-462 535-573l95-98h648v36l-267 179c-148 98-376 253-508 344l-240 166-141 3-142 3-7-10zm465-11c29-23 484-319 668-434l124-78 24 6 24 6v400l-22 5c-27 6-404 67-593 95-71 11-157 20-190 20h-60l25-20zm-785-93c-13-7-55-77-55-92 0-3 92-5 205-5h205v8c-1 4-18 26-39 50l-38 43-132 2-131 3-15-9zM903 528c-6-7-20-32-32-55l-21-43h680v9c0 5-15 29-33 53l-33 43-276 3-275 2-10-12zM793 308c-5-7-22-34-37-60l-27-48h506c278 0 505 2 505 5 0 2-19 29-41 60l-42 55H802l-9-12z"/></g><g fill="#b484fa" transform="matrix(.1 0 0 -.1 0 263)"><path d="M1228 2503c7-3 16-2 19 1 4 3-2 6-13 5l-19-1 13-5zm33 3c7-7 113-46 116-42 4 4-96 46-110 46-6 0-8-2-6-4zm-66-19c-3-6-4-172-3-367l3-355 50-12c28-7 55-11 60-9 6 2-16 9-48 16l-57 13 2 364c2 199 2 363 0 363-1 0-5-6-7-13zm195-32c0-7 61-37 66-33 2 3-12 12-31 21s-35 15-35 12zm101-49c10-9 89-46 89-41s-75 45-86 45c-4 0-5-2-3-4zm-534-32c-27-14-47-28-44-31 3-2 26 7 51 22l46 27v-11c0-6-11-16-24-21l-24-9-7-22-7-22-7 10c-3 5-14 13-25 16l-19 7-86-46c-47-25-249-139-448-252L0 1835v-213l173-58 173-57 140 51c76 28 220 81 319 117 99 37 188 69 198 72l17 5v648h-7c-5-1-30-12-56-26zm30-49c0-8-4-15-8-15-11 0-20 16-12 24 11 11 20 7 20-9zm-66-22 14-18-15 11c-8 6-22 14-30 17l-15 5 16 1 17 1 13-17zm86-105-5-13v50l5-12c2-7 2-19 0-25zm0-55-5-18v60l5-12c2-7 2-21 0-30zm823 97c19-11 40-19 45-19 6 0-6 8-25 19s-39 19-45 19c-5 0 6-8 25-19zm181-84c2-2 15-9 29-15l25-12-19 15c-16 13-49 24-35 12zm99-51c14-8 30-14 35-14 6 0-1 6-15 14s-29 14-35 14c-5 0 1-6 15-14zm330-160c25-13 50-24 55-24 6 0-10 11-35 24s-49 24-55 24c-5 0 10-11 35-24zm77-36c7-7 15-10 18-7s-2 9-12 12l-18 7 12-12zm-1189-176c6-2 18-2 25 0l12 5h-50l13-5zm50-10c6-2 18-2 25 0l12 5h-50l13-5zm92-18c30-8 73-16 95-19l40-5-55 14c-30 8-73 16-95 19l-40 5 55-14zm165-35c17-4 39-8 50-8h20l-25 8c-14 4-36 8-50 8h-25l30-8zm120-25c28-7 59-13 70-13s-2 6-30 13c-27 7-59 13-70 13s3-6 30-13zm140-30c28-7 59-13 70-13s-2 6-30 13c-27 7-59 13-70 13s3-6 30-13zm103-22c7-3 16-2 19 1 4 3-2 6-13 5l-19-1 13-5zm62-13c14-4 34-8 45-8h20l-25 8c-14 4-34 8-45 8h-20l25-8zm78-17c6-2 18-2 25 0l12 5h-50l13-5zm50-10c7-3 16-2 19 1 4 3-2 6-13 5l-19-1 13-5zm-998-295V963l61-7c34-3 358-6 720-6h659v17l-67 1c-38 0-274 1-526 2l-458 1 6 9 5 9-10 6-10 6 2-13 3-13-53-3-54-3 6 10 6 10-37-5-38-4 13 6c6 3 12 9 12 13v8l-74-2-74-2 4 11 4 11-26 2-27 1 14-9 14-9-23-6-22-6 17-14 18-13-27-1h-28v570h9c10 0 45-7 178-35 40-8 85-15 100-14l28 1-40 8c-37 8-173 33-252 47l-33 6v-295zm1038 285c6-2 18-2 25 0l12 5h-50l13-5zm50-10c6-2 18-2 25 0l12 5h-50l13-5zm-1368-23c-36-10-180-48-320-84l-255-66-65-33c-36-18-111-60-167-93L0 1175V960l78-1c85 0 729 0 860 1h82v570l-22-1c-13 0-52-9-88-19zm97-12-5-13-1 19c-1 11 2 17 5 13 3-3 4-12 1-19zm1338 22c17-4 39-8 50-8h20l-25 8c-14 4-36 8-50 8h-25l30-8zm90-20c11-5 29-8 40-8h20l-25 8c-14 4-32 8-40 8l-15 1 20-9zm-780-40c77-16 163-30 190-33l50-6-35 9c-57 14-315 60-330 59-8-1 48-14 125-29zm863 23c7-3 16-2 19 1 4 3-2 6-13 5l-19-1 13-5zm40-10c6-2 18-2 25 0l12 5h-50l13-5zm50-10c7-3 16-2 19 1 4 3-2 6-13 5l-19-1 13-5zm-700-50c6-2 18-2 25 0l12 5h-50l13-5zm127-24c50-10 99-18 110-17 11 0-20 9-70 19-49 10-99 18-110 17-11 0 21-8 70-19zm143-26c6-2 18-2 25 0l12 5h-50l13-5zm62-13c25-8 97-13 89-6-2 2-29 6-59 9l-55 6 25-9zm120-20c14-4 34-8 45-8h20l-25 8c-14 4-34 8-45 8h-20l25-8zm125-25c78-18 116-17 45 0-30 8-66 14-80 14l-25-1 60-13zm113-22c6-2 18-2 25 0l12 5h-50l13-5zM407 648C305 536 171 391 111 325L0 206v-86l281 2 280 3 38 70c20 39 86 164 145 280 60 116 126 242 147 282 22 39 39 76 39 82v11H592L407 648zm918 193-6-11 33-39c50-57 427-462 535-573l95-98h648v36l-267 179c-148 98-376 253-508 344l-240 166-141 3-142 3-7-10zm465-11c29-23 484-319 668-434l124-78 24 6 24 6v400l-22 5c-27 6-404 67-593 95-71 11-157 20-190 20h-60l25-20zm-785-93c-13-7-55-77-55-92 0-3 92-5 205-5h205v8c-1 4-18 26-39 50l-38 43-132 2-131 3-15-9zM903 528c-6-7-20-32-32-55l-21-43h680v9c0 5-15 29-33 53l-33 43-276 3-275 2-10-12zM793 308c-5-7-22-34-37-60l-27-48h506c278 0 505 2 505 5 0 2-19 29-41 60l-42 55H802l-9-12z"/></g><g fill="#a372ef" transform="matrix(.1 0 0 -.1 0 263)"><path d="M1192 2420v-25l5 13c2 6 2 18 0 25l-5 12v-25zm2-130v-105l3 53c2 28 2 76 0 105l-3 52v-105zm-183 64 1-19 5 13c3 7 2 16-1 19-3 4-6-2-5-13zm-221-71c-36-20-188-105-338-190l-272-155 5-8c3-5 0-12-6-16l-12-7 7 11 7 12h-7c-3 0-44-21-90-47l-84-48v-213l173-58 174-57 224 82c123 46 257 94 297 108s71 27 69 30c-5 4-103-29-300-101-54-20-106-36-115-36h-17l13 9c8 4 14 12 15 17s8 8 15 8c6-1 12 2 12 7s-8 9-17 9h-18l15 10c14 9 13 11-10 14-6 0-15 7-19 15l-9 14-12-8-13-8 7 12 8 12-12 14-11 13 17 10 16 9-17 6-16 7 7 11 7 12-11-7-12-7-1 10c-1 6-2 15-3 20 0 5-5 13-10 18l-9 8 7-12 6-12-19 2-19 1 9 17 9 18-10 6-9 6 5 13 5 14-10 7-11 6 6 11 7 11-10-6-11-7-5 15c-4 8-4 23-2 35l4 20h-19v-59l-10-6-10-6v8c0 5-7 18-15 29l-15 19 6-17 6-18h-21l5-15 6-15 24 4 24 5v-69h-10c-5 0-10 6-10 14s-4 16-8 18c-13 5-52 65-51 80v13l9-20 9-20v16c1 8-5 24-13 34l-14 19 285 162c157 90 288 165 291 168 11 12-5 5-68-31zm-510-313c0-5-6-10-14-10-7 0-19-7-26-15s-20-15-29-15l-16 1 40 24c46 29 45 28 45 15zm83-170 5-20-9 6c-5 3-9 12-9 20 0 20 7 17 13-6zm87-31v-20l-10 6c-5 3-10 13-10 21s5 14 10 14h10v-21zm58-137c4-35-5-25-12 12l-5 28 6-6c4-4 9-19 11-34zm503 642 1-19 5 13c3 7 2 16-1 19-3 4-6-2-5-13zm-1-281-5-242 8 8 7 7-2 235-3 234-5-242zm184-43v-185l3 93c2 50 2 134 0 185l-3 92v-185zm-814 60-15-10h12c6 0 15 5 18 10 8 12 4 12-15 0zm580-270-15-10h10c6 0 17 5 25 10l15 10h-10c-5 0-17-5-25-10zm230-484V963l61-7c71-7 1125-8 1118-1-3 2-216 6-475 7-258 1-520 4-581 6l-113 3v568l23 4 22 4-27 2-28 1v-294zm68 277c7-3 16-2 19 1 4 3-2 6-13 5l-19-1 13-5zm-348-23c-36-10-180-48-320-84l-255-66-65-33c-36-18-111-60-167-93L0 1175V960l78-1c85 0 729 0 860 1h82v570l-22-1c-13 0-52-9-88-19zm98-262-3-273-37-3-38-3v20l17-6 16-6-6 16-6 17 17 1 17 1-13 5-12 5 5 9 6 9-17-7-17-6 6 22 5 22-20-7-21-6 7 13c4 8 0 5-10-6l-17-20 6 18 6 17h-14c-8 0-15 4-15 8v8l-31-2-30-2 5 14 5 14h-20l7 12 7 11-11-7-11-7 5-13 5-14-13-8-13-7 7 7 7 8-10 25-9 24 13-7 12-8-12 16c-7 8-10 17-7 21 3 3-3 11-14 18l-20 13 15 25 15 26-15-17c-15-19-28-24-26-10 1 4 1 11 0 15l-1 8-20-11-20-11v9c0 6-9 12-20 15l-20 5v37l10-15 10-15v12c0 6-5 15-10 18l-10 6 5 10 6 9h-31v38l-12 5-13 4 13 16 14 16-7 10-6 11 33-5 33-5-19 8-18 8 163 46c90 25 172 47 182 47l17 1-2-272zm-405 155c-7-2-19-2-25 0l-13 5h50l-12-5zm-58-13c-11-5-29-8-40-8h-20l25 8c14 4 32 8 40 8l15 1-20-9zm75-50c0-5-5-10-11-10h-10l6 10c3 6 8 10 11 10 2 0 4-4 4-10zm60-110c0-5-5-10-11-10h-10l6 10c3 6 8 10 11 10 2 0 4-4 4-10zm85-50 6-10-15 6c-18 7-21 14-7 14 6 0 13-4 16-10zm553 343c7-3 16-2 19 1 4 3-2 6-13 5l-19-1 13-5zm1270-570c7-3 16-2 19 1 4 3-2 6-13 5l-19-1 13-5zM407 648C305 536 171 391 111 325L0 206v-86l281 2 280 3 38 70c20 39 86 164 145 280 60 116 126 242 147 282 22 39 39 76 39 82v11H592L407 648zm918 193-6-11 33-39c50-57 427-462 535-573l95-98h648v36l-267 179c-148 98-376 253-508 344l-240 166-141 3-142 3-7-10zm465-11c29-23 484-319 668-434l124-78 24 6 24 6v400l-22 5c-27 6-404 67-593 95-71 11-157 20-190 20h-60l25-20zm-785-93c-13-7-55-77-55-92 0-3 92-5 205-5h205v8c-1 4-18 26-39 50l-38 43-132 2-131 3-15-9zM903 528c-6-7-20-32-32-55l-21-43h680v9c0 5-15 29-33 53l-33 43-276 3-275 2-10-12zM793 308c-5-7-22-34-37-60l-27-48h506c278 0 505 2 505 5 0 2-19 29-41 60l-42 55H802l-9-12z"/></g><g fill="#8352d5" transform="matrix(.1 0 0 -.1 0 263)"><path d="m334 2024-19-15 23 11c12 6 22 13 22 15 0 8-5 6-26-11zm-70-40-19-15 23 11c12 6 22 13 22 15 0 8-5 6-26-11zm-56-30c-38-20-36-28 2-9 17 9 30 18 30 20 0 7-1 6-32-11zm-70-40c-38-20-36-28 2-9 17 9 30 18 30 20 0 7-1 6-32-11zm-103-59c-22-14-36-25-31-25 10 0 76 40 76 46s-2 5-45-21zM0 1626c0-6 160-59 165-54 3 2-23 14-58 25-88 30-107 35-107 29zm205-71c17-7 41-15 55-19l25-6-40 19c-22 11-47 19-55 19h-15l30-13zm140-35-30-8 25-1c14 0 32 4 40 9 17 11 8 11-35 0zm310-80-20-9 15 1c8 0 26 4 40 8l25 8h-20c-11 0-29-3-40-8zm-47-17c7-3 16-2 19 1 4 3-2 6-13 5l-19-1 13-5zm-40-10c7-3 16-2 19 1 4 3-2 6-13 5l-19-1 13-5zm-73-13-20-9 15 1c8 0 26 4 40 8l25 8h-20c-11 0-29-3-40-8zm-47-17c7-3 16-2 19 1 4 3-2 6-13 5l-19-1 13-5zm-106-24c-35-11-62-22-60-24s37 7 78 20 68 23 60 24c-8 0-44-9-78-20zm-152-75c-41-25-100-59-131-76l-57-31-1-99-2-98h40l9 16c5 9 12 15 15 15 4-1 12-1 17-1h10v21c0 11-5 29-11 40l-10 20-11-7-11-7 6 16 6 17H41c-10 0-21 3-24 6l-6 7 9 18 10 17-11 4-10 3 113 67c108 64 159 97 148 98-3 0-39-21-80-46zm1003-239v-40l4 23c2 12 2 30 0 40l-5 17 1-40zm-1-65v-25l5 13c2 6 2 18 0 25l-5 12v-25zM2 964c8-7 808-8 815 0 4 3-180 6-407 6s-411-3-408-6zm844-2-5-8 35 4c19 2 34 6 34 8 0 8-59 4-64-4zm457-9c20-2 54-2 75 0l37 4h-150l38-4zM407 648C305 536 171 391 111 325L0 206v-86l281 2 280 3 38 70c20 39 86 164 145 280 60 116 126 242 147 282 22 39 39 76 39 82v11H592L407 648zm918 193-6-11 33-39c50-57 427-462 535-573l95-98h648v36l-267 179c-148 98-376 253-508 344l-240 166-141 3-142 3-7-10zm465-11c29-23 484-319 668-434l124-78 24 6 24 6v380l-17 1h-18l20 9 20 8-25 6c-27 7-384 65-595 96-71 11-157 20-190 20h-60l25-20zm783-107c-7-2-19-2-25 0l-13 5h50l-12-5zm-1568 14c-13-7-55-77-55-92 0-3 92-5 205-5h205v8c-1 4-18 26-39 50l-38 43-132 2-131 3-15-9zM903 528c-6-7-20-32-32-55l-21-43h680v9c0 5-15 29-33 53l-33 43-276 3-275 2-10-12zM793 308c-5-7-22-34-37-60l-27-48h506c278 0 505 2 505 5 0 2-19 29-41 60l-42 55H802l-9-12z"/></g><g fill="#3b1c8b" transform="matrix(.1 0 0 -.1 0 263)"><path d="M407 648C305 536 171 391 111 325L0 206v-86l281 2 280 3 38 70c20 39 86 164 145 280 60 116 126 242 147 282 22 39 39 76 39 82v11H592L407 648zm918 193-6-11 33-39c50-57 427-462 535-573l95-98h648v36l-267 179c-148 98-376 253-508 344l-240 166-141 3-142 3-7-10zm470-15c40-32 663-433 729-469 83-45 91-51-484 318-118 75-223 146-233 156-10 11-23 19-30 19h-12l30-24zm43 17c12-2 30-2 40 0l17 5-40-1h-40l23-4zm85-10c9-2 25-2 35 0l17 5h-70l18-5zm85-10c6-2 18-2 25 0l12 5h-50l13-5zm70-10c6-2 18-2 25 0l12 5h-50l13-5zm120-20c6-2 18-2 25 0l12 5h-50l13-5zm-1193-56c-13-7-55-77-55-92 0-3 92-5 205-5h205v8c-1 4-18 26-39 50l-38 43-132 2-131 3-15-9zM903 528c-6-7-20-32-32-55l-21-43h680v9c0 5-15 29-33 53l-33 43-276 3-275 2-10-12zM793 308c-5-7-22-34-37-60l-27-48h506c278 0 505 2 505 5 0 2-19 29-41 60l-42 55H802l-9-12z"/></g><g fill="#190a4a" transform="matrix(.1 0 0 -.1 0 263)"><path d="M400 639C298 529 167 386 107 322 48 258 0 202 0 198s35 29 78 75c76 80 99 105 307 332 55 60 125 135 155 167l55 59 161-3 161-3-49-90c-27-49-92-173-145-275-52-102-111-215-131-252l-36-68H0v-20l281 2 281 3 103 196c157 301 265 511 265 515 0 2-78 4-172 4H585L400 639zm920 193c0-5 48-60 108-123 59-63 165-178 236-254 71-77 172-184 223-238l95-97h653l-15 10-15 10h-633l-27 32c-15 18-96 105-180 193-83 88-211 224-284 302-73 79-138 146-144 150l-12 8 145 5 145 6-147 2-148 2v-8zm321-21c38-29 236-163 609-412 190-127 353-238 363-247l17-15v9c0 5-163 119-362 252-200 134-425 286-501 338-125 86-186 122-126 75zm-649-83c-16-21-44-80-39-84 2-2 95-3 206-2l202 3-37 48-37 47h-285l-10-12zm313-31c11-17 21-35 23-39l4-8h-181c-100 0-181 2-181 4 0 4 21 45 33 64l8 12h274l20-33zM903 528c-6-7-20-32-32-55l-21-43h680v9c0 5-15 29-33 53l-33 43-276 3-275 2-10-12zm578-38c13-19 26-38 27-42l4-8H869l17 33c9 17 20 37 24 42l8 10h540l23-35zM766 263l-35-58 501-3c276-1 503 0 505 2s-15 29-38 60l-42 56H802l-36-57zm922-7 31-43-483 1-483 1 26 42 26 43h852l31-44z"/></g></g></svg>